<?xml version="1.0" encoding="UTF-8"?>
<svg width="128px" height="122px" viewBox="0 0 128 122" version="1.1" xmlns="http://www.w3.org/2000/svg" xmlns:xlink="http://www.w3.org/1999/xlink">
    <!-- Generator: Sketch 40 (33762) - http://www.bohemiancoding.com/sketch -->
    <title>purplefriend</title>
    <desc>Created with Sketch.</desc>
    <defs></defs>
    <g id="Page-1" stroke="none" stroke-width="1" fill="none" fill-rule="evenodd">
        <g id="holdings">
            <g id="Group">
                <g id="Shape">
                    <g>
                        <g>
                            <path d="M42.65,44.41 C43.29,40.87 46.18,38.44 49.11,39.03 C52.03,39.6 53.9,42.97 53.26,46.52 C52.63,50.08 49.74,52.48 46.83,51.92 C43.9,51.33 42.02,47.98 42.65,44.41 L42.65,44.41 Z" fill="#2F2F2F"></path>
                            <path d="M73.25,54.81 C70.29,54.89 67.82,52.06 67.78,48.44 C67.73,44.83 70.12,41.81 73.1,41.73 C76.09,41.61 78.54,44.48 78.59,48.09 C78.64,51.7 76.24,54.72 73.25,54.81 L73.25,54.81 Z" fill="#2F2F2F"></path>
                            <path d="M110.73,97.03 C106.95,96.85 103.5,95.12 100.55,92.86 C99.35,91.94 97.14,90.57 96.68,89.03 C96.18,87.37 97.77,86.33 99.09,85.83 C100.99,85.11 102.85,84.34 104.65,83.4 C108.27,81.51 111.62,79.12 114.58,76.31 C122.28,69.04 127.26,58.98 127.63,48.33 C127.81,43.31 127.11,38.1 126.15,33.18 C125.19,28.25 123.22,23.52 120.47,19.32 C118.05,15.63 114.67,12.98 115.76,7.93 C116.17,6.07 117.07,5.64 116.45,3.5 C115.99,1.95 115.47,0.94 113.71,0.76 C112.94,0.68 112.22,0.71 111.58,0.84 C107.87,1.61 106.25,5.62 106.18,9.48 C106.09,15.65 109.19,20.87 110.92,26.59 C112.6,32.16 113.83,38.16 113.09,43.99 C112.38,49.52 109.9,55.15 106.55,59.57 C104.8,61.89 102.5,64.22 99.93,65.63 C96.03,67.77 95.18,65.69 97.44,62.51 C101.08,57.44 102.11,51.08 102.69,45.01 C103.71,34.35 101.94,22.6 94.79,14.22 C91.86,10.78 87.6,7 83.52,4.99 C73.71,0.19 60.3,-1.65 50.22,3.38 C42.7,7.12 36.31,13.31 32.64,20.79 C30.11,25.93 28.04,32.08 27.26,37.79 C26.46,43.61 26.97,49.61 28.59,55.24 C30.06,60.33 32.66,63.52 35.48,67.82 C36.51,69.4 35.57,69.84 33.9,69.27 C32.82,68.9 31.72,68.35 30.73,67.79 C28.71,66.62 26.98,65 25.37,63.32 C22.75,60.59 20.82,57.22 19.43,53.72 C18.08,50.3 17.2,46.64 17.06,42.96 C16.86,37.39 17.73,31.89 19.34,26.6 C20.15,23.91 20.85,21.15 21.26,18.44 C21.4,17.55 21.68,16.77 21.68,15.71 C21.67,13.65 21.69,11.69 21.27,9.81 C20.64,7.04 19.61,3.59 17.08,2.81 C16.2,2.54 15.13,2.59 13.83,3.12 C11.55,4.05 11.69,5.44 12.15,7.54 C12.57,9.43 12.73,11.06 12.24,12.96 C11.77,14.78 11.1,16.65 10.17,18.38 C7.58,23.14 5.17,27.81 4.11,33.19 C3.16,38.1 2.47,43.31 2.64,48.33 C3.23,65.5 15.44,80.23 31.24,85.85 C29.91,87.19 28.52,88.41 27.1,89.16 C23.28,91.19 17.99,90.84 14.76,88.06 C11.39,85.17 7.27,81.62 2.51,82.16 C1.27,82.3 0.43,83.51 0.34,84.69 C0.21,86.33 1.59,87.44 2.72,88.39 C4.92,90.25 7.34,91.95 9.36,93.98 C12.37,97 15.02,100.34 19.12,101.9 C26.81,104.82 32.94,100.74 39.6,97.53 C40.9,96.9 43.15,96.8 43.55,98.52 C44.53,102.71 39.44,106.34 36.77,108.72 C34.99,110.3 32.76,111.49 30.34,111.48 C28.28,111.47 25.46,110.86 25.05,113.48 C24.68,115.89 25.36,117.92 27.45,119.27 C28.71,120.08 30.21,120.5 31.68,120.61 C34.19,120.81 36.47,120.83 38.85,119.97 C41.67,118.95 44.31,117.4 46.88,115.87 C51.27,113.26 54.97,109.75 58.58,106.16 C61.35,103.43 64.89,99.4 68.94,102.58 C73.73,106.34 75.72,112.73 80.64,116.6 C84.84,119.91 88.51,122.95 94.23,121 C96.25,120.31 99.12,118.83 99.55,116.6 C100.07,113.85 97.66,113.59 95.68,113.26 C89.38,112.18 86.65,107.2 84.42,101.69 C83.81,100.18 83.4,96.09 86.34,97.22 C87.45,97.65 88.05,99.23 88.77,100.11 C89.72,101.28 90.89,102.3 92.08,103.22 C94.46,105.05 97.21,106.62 100.1,107.49 C108.11,109.91 117.96,107.11 123.26,100.66 C123.97,99.8 125.32,97.86 125.36,96.7 C125.42,94.86 123.62,94.07 122.07,94.51 C118.3,95.58 114.73,97.22 110.73,97.03 Z" fill="#A157E8"></path>
                            <path d="M63.51,66.27 C64.63,65.46 65.46,64.58 65.97,63.21 C66.27,62.41 66.9,60.99 67.89,61.83 C68.6,62.44 69.21,64.62 69.32,65.49 C69.44,66.47 69.34,67.61 69.31,68.6 C69.23,71.05 67.22,73.67 65.41,75.27 C63.22,77.19 59.32,78.72 56.45,78.8 C55.57,78.82 54.05,79.09 53.27,78.58 C51.67,77.53 54.83,75.61 55.57,74.98 C57.82,73.05 59.65,71.31 60.9,68.6 C61.35,67.64 62.01,67.26 62.86,66.72 C63.08,66.57 63.31,66.42 63.51,66.27 L63.51,66.27 Z" fill="#855C52"></path>
                        </g>
                        <path d="M42.65,44.41 C43.29,40.87 46.18,38.44 49.11,39.03 C52.03,39.6 53.9,42.97 53.26,46.52 C52.63,50.08 49.74,52.48 46.83,51.92 C43.9,51.33 42.02,47.98 42.65,44.41 L42.65,44.41 Z" fill="#2F2F2F"></path>
                        <path d="M73.25,54.81 C70.29,54.89 67.82,52.06 67.78,48.44 C67.73,44.83 70.12,41.81 73.1,41.73 C76.09,41.61 78.54,44.48 78.59,48.09 C78.64,51.7 76.24,54.72 73.25,54.81 L73.25,54.81 Z" fill="#2F2F2F"></path>
                    </g>
                    <path d="M57.82,77.85 C56.12,78.57 54.17,78.84 52.24,78.63 C51.73,78.58 51.21,78.49 50.7,78.37 C48.05,77.74 45.54,76.24 43.89,73.84 C43.18,72.82 42.7,71.74 42.4,70.65 C42.1,69.51 42,68.36 42.07,67.24 C42.39,61.72 46.94,57 52.71,57.73 C58.21,58.43 62.75,63.45 63.08,69 C63.33,73.57 61,76.51 57.82,77.85 L57.82,77.85 Z" fill="#FCD4B5"></path>
                    <path d="M52.63,62.24 C48.92,61.74 46.14,65.73 47.12,69.59 C47.28,70.22 47.54,70.83 47.92,71.41 C50.83,75.9 58.52,74.93 58.18,68.66 C58.01,65.5 55.57,62.64 52.63,62.24 L52.63,62.24 Z" fill="#2F2F2F"></path>
                </g>
                <g transform="translate(99.000000, 38.000000)" id="Shape" fill="#FCD4B5">
                    <path d="M6.24,41.16 C5.78,42.51 4.14,43.39 2.94,43.75 C2.32,43.94 0.21,44.41 0.7,42.96 C1.17,41.57 2.99,40.62 4.25,40.24 C5.06,39.99 6.77,39.64 6.24,41.16 L6.24,41.16 Z"></path>
                    <path d="M13.84,32.81 C14.19,32.79 14.52,32.91 14.69,33.26 C15.36,34.59 13.55,36.36 12.68,37 C10.9,38.31 9.48,36.89 10.89,34.94 C11.26,34.43 11.64,33.98 12.13,33.56 C12.49,33.26 13.22,32.84 13.84,32.81 L13.84,32.81 Z"></path>
                    <path d="M21.13,27.09 C20.47,28.78 18.59,30.62 18.2,29.34 C17.9,28.34 18.48,27.06 19.02,26.28 C19.4,25.76 20.16,24.63 20.9,25.12 C21.48,25.49 21.45,26.27 21.13,27.09 L21.13,27.09 Z"></path>
                    <g transform="translate(22.000000, 0.000000)">
                        <path d="M2.85,19.09 C2.77,19.61 2.63,20.11 2.49,20.38 C2.18,20.96 1.12,22.32 0.59,21.47 C0.08,20.68 0.4,19.19 0.8,18.43 C1.08,17.91 1.38,17.43 1.83,17.16 C2.86,16.58 3.01,17.91 2.85,19.09 L2.85,19.09 Z"></path>
                        <path d="M4.26,10.11 C4.32,10.61 4.31,11.09 4.23,11.37 C4.08,11.98 3.44,13.48 2.76,12.84 C2.13,12.26 2.08,10.83 2.28,10.03 C2.41,9.49 2.57,8.98 2.92,8.63 C3.7,7.84 4.14,9.01 4.26,10.11 L4.26,10.11 Z"></path>
                        <path d="M4.4,2.58 C4.46,3.18 4.44,3.74 4.39,3.91 C4.3,4.31 3.95,5.1 3.55,5.24 C3.02,5.42 2.79,4.6 2.73,4.21 C2.66,3.79 2.71,3.3 2.71,2.87 C2.72,2.29 2.93,1.17 3.6,0.96 C4.11,0.82 4.32,1.73 4.4,2.58 L4.4,2.58 Z"></path>
                    </g>
                </g>
                <g transform="translate(4.000000, 26.000000)" id="Shape" fill="#FCD4B5">
                    <path d="M13.52,47.92 C13.59,49.36 14.93,50.7 16.01,51.39 C16.56,51.76 18.49,52.81 18.43,51.26 C18.36,49.77 16.85,48.32 15.73,47.59 C15.01,47.13 13.45,46.29 13.52,47.92 L13.52,47.92 Z"></path>
                    <path d="M7.74,37.69 C7.37,37.56 7,37.59 6.72,37.9 C5.62,39.08 6.95,41.46 7.68,42.4 C9.13,44.3 11.03,43.26 10.16,40.81 C9.93,40.16 9.68,39.58 9.29,39 C9.02,38.56 8.38,37.91 7.74,37.69 L7.74,37.69 Z"></path>
                    <path d="M1.91,29.54 C2.09,31.49 3.48,33.98 4.28,32.76 C4.88,31.81 4.69,30.32 4.35,29.33 C4.12,28.67 3.67,27.27 2.75,27.56 C2.04,27.77 1.83,28.59 1.91,29.54 L1.91,29.54 Z"></path>
                    <g>
                        <path d="M0.48,20.09 C0.41,20.66 0.39,21.22 0.46,21.54 C0.6,22.24 1.29,23.97 2.1,23.26 C2.88,22.6 3,20.95 2.82,20.05 C2.69,19.42 2.52,18.83 2.13,18.42 C1.23,17.49 0.67,18.82 0.48,20.09 L0.48,20.09 Z"></path>
                        <path d="M1.76,10.35 C1.55,10.85 1.41,11.35 1.4,11.67 C1.37,12.35 1.58,14.09 2.48,13.65 C3.32,13.24 3.79,11.77 3.84,10.89 C3.86,10.29 3.86,9.71 3.6,9.24 C3.01,8.16 2.2,9.24 1.76,10.35 L1.76,10.35 Z"></path>
                        <path d="M3.89,2.49 C3.65,3.1 3.49,3.69 3.49,3.88 C3.46,4.32 3.58,5.26 3.96,5.52 C4.46,5.86 4.94,5.09 5.13,4.7 C5.33,4.28 5.43,3.76 5.56,3.31 C5.73,2.71 5.84,1.47 5.2,1.06 C4.73,0.75 4.23,1.63 3.89,2.49 L3.89,2.49 Z"></path>
                    </g>
                </g>
                <g transform="translate(19.000000, 94.000000)" id="Shape" fill="#FCD4B5">
                    <path d="M16.08,3.7 C17.98,3.25 20.24,1.51 18.93,0.91 C17.91,0.43 16.45,0.85 15.53,1.32 C14.91,1.64 13.58,2.29 14,3.15 C14.32,3.82 15.16,3.92 16.08,3.7 L16.08,3.7 Z"></path>
                    <path d="M9.2,6.38 C9.86,6.33 13.01,5.66 11.78,4.42 C11.18,3.82 9.74,4.23 9.06,4.5 C8.6,4.68 8.05,4.89 7.75,5.29 C7.27,5.95 7.74,6.41 8.46,6.4 C8.69,6.4 8.94,6.4 9.2,6.38 L9.2,6.38 Z"></path>
                    <path d="M1.69,6.3 C1.92,6.38 2.12,6.44 2.24,6.47 C2.8,6.61 4.74,7.17 5.04,6.41 C5.47,5.37 3.33,5.08 2.76,5.04 C2.34,5.02 1.08,4.98 0.83,5.41 C0.59,5.81 1.19,6.11 1.69,6.3 L1.69,6.3 Z"></path>
                </g>
                <g transform="translate(102.000000, 99.000000)" id="Shape" fill="#FCD4B5">
                    <path d="M14.79,4.38 C16.03,4.2 17.52,3.13 17.57,2.1 C17.66,0.11 15.11,0.89 14.15,1.5 C13.54,1.89 13.08,2.49 13.15,3.25 C13.24,4.21 13.96,4.5 14.79,4.38 L14.79,4.38 Z"></path>
                    <path d="M8.38,7.02 C9.18,7.02 10.11,6.61 10.75,6.14 C11.58,5.52 11.45,4.68 10.53,4.27 C9.89,3.98 9.07,4.19 8.47,4.44 C7.85,4.7 7.11,5.11 7.05,5.84 C6.97,6.72 7.6,7.02 8.38,7.02 L8.38,7.02 Z"></path>
                    <path d="M0.51,7.06 C1.29,7.62 3.5,7.55 4.03,7.28 C4.93,6.82 4.16,6.04 3.52,5.8 C2.78,5.52 1.88,5.58 1.13,5.78 C0.86,5.86 0.46,5.98 0.33,6.25 C0.14,6.61 0.24,6.87 0.51,7.06 L0.51,7.06 Z"></path>
                </g>
                <g transform="translate(27.000000, 115.000000)" id="Shape" fill="#FCD4B5">
                    <path d="M1.85,3.04 C1.35,2.73 0.69,2.12 0.83,1.45 C1,0.62 1.79,0.33 2.56,0.37 C3.84,0.44 6.21,2.14 4.38,3.35 C3.75,3.77 2.43,3.4 1.85,3.04 L1.85,3.04 Z"></path>
                    <path d="M7.04,4.15 C6.89,4.1 6.76,4.01 6.69,3.86 C6.04,2.64 7.97,3.05 8.54,3.23 C10.25,3.78 9.32,4.42 7.92,4.25 C7.66,4.22 7.32,4.25 7.04,4.15 L7.04,4.15 Z"></path>
                </g>
                <g transform="translate(13.000000, 6.000000)" id="Shape" fill="#FCD4B5">
                    <path d="M0.54,1.24 C0.58,0.78 0.78,0.38 1.27,0.3 C1.62,0.25 1.76,0.34 2.04,0.59 C2.71,1.19 3.1,2.21 2.96,3.1 C2.85,3.8 2.28,4.38 1.56,4.03 C0.8,3.66 0.47,2.02 0.54,1.24 L0.54,1.24 Z"></path>
                    <path d="M1.27,6.89 C1.52,6.58 1.81,6.43 2.15,6.64 C3.09,7.25 1.78,9.6 0.88,9.59 C0.33,9.58 0.36,9.28 0.46,8.84 C0.53,8.49 0.82,7.44 1.27,6.89 L1.27,6.89 Z"></path>
                </g>
                <g transform="translate(3.000000, 85.000000)" id="Shape" fill="#FCD4B5">
                    <path d="M0.71,1.93 C0.27,0.93 0.97,0.06 1.99,0.06 C2.63,0.06 2.96,0.23 3.43,0.62 C3.82,0.94 3.95,1.22 4.01,1.73 C4.12,2.67 3.66,3.37 2.7,3.26 C1.9,3.17 1.06,2.66 0.71,1.93 L0.71,1.93 Z"></path>
                    <path d="M5.22,4.7 C5.03,4.03 5.24,3.4 6.24,3.56 C6.98,3.68 7.52,4.43 7.65,5.14 C7.82,6.12 7.03,6.4 6.22,6.01 C5.77,5.79 5.38,5.23 5.22,4.7 L5.22,4.7 Z"></path>
                </g>
                <g transform="translate(112.000000, 5.000000)" id="Shape" fill="#FCD4B5">
                    <path d="M2.61,1.11 C2.56,0.65 2.35,0.25 1.86,0.18 C1.51,0.13 1.37,0.23 1.09,0.49 C0.43,1.11 0.06,2.13 0.22,3.02 C0.34,3.72 0.93,4.29 1.64,3.92 C2.4,3.53 2.7,1.89 2.61,1.11 L2.61,1.11 Z"></path>
                    <path d="M2.1,6.74 C1.49,6.15 1.03,6.88 1.19,7.74 C1.29,8.3 1.48,8.93 2.01,9.22 C2.51,9.49 3.1,9.41 3.04,8.73 C3,8.21 2.61,7.42 2.31,6.99 C2.23,6.9 2.17,6.81 2.1,6.74 L2.1,6.74 Z"></path>
                </g>
                <g transform="translate(84.000000, 116.000000)" id="Shape" fill="#FCD4B5">
                    <path d="M9.33,3.45 C9.75,3.34 10.08,3.2 10.24,3.04 C10.71,2.59 10.99,1.87 10.23,1.54 C9.57,1.25 8.66,1.37 7.92,1.53 C7.37,1.65 6.25,2.03 6.48,2.77 C6.75,3.64 8.7,3.61 9.33,3.45 L9.33,3.45 Z"></path>
                    <path d="M3.12,2.86 C3.3,2.9 3.49,2.9 3.66,2.8 C5.09,2 2.9,1.18 2.22,1 C0.16,0.46 0.68,1.69 2.19,2.4 C2.46,2.53 2.79,2.77 3.12,2.86 L3.12,2.86 Z"></path>
                </g>
            </g>
        </g>
    </g>
</svg>